<svg preserveAspectRatio="none" overflow="visible" style="display: block;" width="32" height="32" viewBox="0 0 32 32" fill="none" xmlns="http://www.w3.org/2000/svg">
<g id="user">
<path id="&#244;&#128;&#137;&#173;" d="M16 32C13.7935 32 11.7229 31.5817 9.78823 30.7451C7.85359 29.919 6.15425 28.7739 4.6902 27.3098C3.22614 25.8458 2.07582 24.1464 1.23922 22.2118C0.413072 20.2771 0 18.2065 0 16C0 13.7935 0.413072 11.7229 1.23922 9.78823C2.07582 7.85359 3.22614 6.15425 4.6902 4.6902C6.15425 3.21569 7.85359 2.06536 9.78823 1.23922C11.7229 0.413072 13.7935 0 16 0C18.2065 0 20.2771 0.413072 22.2118 1.23922C24.1464 2.06536 25.8458 3.21569 27.3098 4.6902C28.7739 6.15425 29.919 7.85359 30.7451 9.78823C31.5817 11.7229 32 13.7935 32 16C32 18.2065 31.5817 20.2771 30.7451 22.2118C29.919 24.1464 28.7739 25.8458 27.3098 27.3098C25.8458 28.7739 24.1464 29.919 22.2118 30.7451C20.2771 31.5817 18.2065 32 16 32ZM16 29.3333C17.8405 29.3333 19.566 28.9882 21.1765 28.298C22.7869 27.6078 24.2039 26.651 25.4275 25.4275C26.651 24.2039 27.6078 22.7869 28.298 21.1765C28.9882 19.566 29.3333 17.8405 29.3333 16C29.3333 14.1595 28.9882 12.434 28.298 10.8235C27.6078 9.20261 26.651 7.78562 25.4275 6.57255C24.2039 5.34902 22.7869 4.39216 21.1765 3.70196C19.566 3.01176 17.8405 2.66667 16 2.66667C14.1595 2.66667 12.434 3.01176 10.8235 3.70196C9.21307 4.39216 7.79608 5.34902 6.57255 6.57255C5.34902 7.78562 4.39216 9.20261 3.70196 10.8235C3.01176 12.434 2.66667 14.1595 2.66667 16C2.66667 17.8405 3.01176 19.566 3.70196 21.1765C4.39216 22.7869 5.34902 24.2039 6.57255 25.4275C7.79608 26.651 9.21307 27.6078 10.8235 28.298C12.434 28.9882 14.1595 29.3333 16 29.3333ZM26.7294 26.3373C25.7778 27.268 24.6588 28.0627 23.3725 28.7216C22.0967 29.3804 20.8052 29.8824 19.498 30.2275C18.1908 30.583 17.0248 30.7608 16 30.7608C14.9856 30.7608 13.8196 30.583 12.502 30.2275C11.1948 29.8824 9.89804 29.3804 8.61176 28.7216C7.32549 28.0627 6.21176 27.268 5.27059 26.3373L5.31765 26.149C5.57908 25.3856 6.19085 24.6327 7.15294 23.8902C8.11503 23.1477 9.34902 22.5359 10.8549 22.0549C12.3712 21.5739 14.0863 21.3333 16 21.3333C17.9242 21.3333 19.6392 21.5739 21.1451 22.0549C22.6614 22.5359 23.8954 23.1477 24.8471 23.8902C25.8092 24.6327 26.4209 25.3908 26.6824 26.1647L26.7294 26.3373ZM16 18.6667C14.9961 18.6562 14.0863 18.3948 13.2706 17.8824C12.4654 17.3595 11.8222 16.6536 11.3412 15.7647C10.8706 14.8758 10.6301 13.8719 10.6196 12.7529C10.6092 11.6967 10.8444 10.7294 11.3255 9.85098C11.8065 8.97255 12.4549 8.2719 13.2706 7.74902C14.0863 7.21569 14.9961 6.94902 16 6.94902C17.0039 6.94902 17.9085 7.21569 18.7137 7.74902C19.5294 8.2719 20.1778 8.97255 20.6588 9.85098C21.1399 10.7294 21.3804 11.6967 21.3804 12.7529C21.3804 13.8719 21.1399 14.881 20.6588 15.7804C20.1882 16.6797 19.5451 17.3908 18.7294 17.9137C17.9137 18.4261 17.0039 18.6771 16 18.6667Z" fill="#121212" fill-opacity="0.0666667"/>
</g>
</svg>
